<?xml version="1.0" ?><!-- Uploaded to: SVG Repo, www.svgrepo.com, Generator: SVG Repo Mixer Tools -->
<svg width="800px" height="800px" viewBox="0 0 32 32" enable-background="new 0 0 32 32" id="Filled_Line" version="1.1" xml:space="preserve" xmlns="http://www.w3.org/2000/svg" xmlns:xlink="http://www.w3.org/1999/xlink"><path d="M27.758,10.366l-1-1.732c-0.552-0.957-1.775-1.284-2.732-0.732L23.5,8.206  C21.5,9.36,19,7.917,19,5.608V5c0-1.105-0.895-2-2-2h-2c-1.105,0-2,0.895-2,2v0.608c0,2.309-2.5,3.753-4.5,2.598L7.974,7.902  C7.017,7.35,5.794,7.677,5.242,8.634l-1,1.732c-0.552,0.957-0.225,2.18,0.732,2.732L5.5,13.402c2,1.155,2,4.041,0,5.196  l-0.526,0.304c-0.957,0.552-1.284,1.775-0.732,2.732l1,1.732c0.552,0.957,1.775,1.284,2.732,0.732L8.5,23.794  c2-1.155,4.5,0.289,4.5,2.598V27c0,1.105,0.895,2,2,2h2c1.105,0,2-0.895,2-2v-0.608c0-2.309,2.5-3.753,4.5-2.598l0.526,0.304  c0.957,0.552,2.18,0.225,2.732-0.732l1-1.732c0.552-0.957,0.225-2.18-0.732-2.732L26.5,18.598c-2-1.155-2-4.041,0-5.196l0.526-0.304  C27.983,12.546,28.311,11.323,27.758,10.366z" fill="#B83B5E" id="XMLID_933_"/><circle cx="15.513" cy="16.5" fill="#8A2C47" id="XMLID_935_" r="5"/><circle cx="16" cy="16" fill="#FFFFFF" id="XMLID_858_" r="5"/><path d="M7.242,23.366l-1-1.732c-0.552-0.957-0.225-2.18,0.732-2.732L7.5,18.598  c2-1.155,2-4.041,0-5.196l-0.526-0.304c-0.957-0.552-1.284-1.775-0.732-2.732l1-1.732c0.183-0.317,0.444-0.558,0.74-0.727  L7.974,7.902C7.017,7.35,5.794,7.677,5.242,8.634l-1,1.732c-0.552,0.957-0.225,2.18,0.732,2.732L5.5,13.402c2,1.155,2,4.041,0,5.196  l-0.526,0.304c-0.957,0.552-1.284,1.775-0.732,2.732l1,1.732c0.552,0.957,1.775,1.284,2.732,0.732l0.008-0.005  C7.686,23.924,7.425,23.683,7.242,23.366z" fill="#8A2C47" id="XMLID_373_"/><path d="M15,27v-0.608c0-2.121-2.108-3.505-4.001-2.824C12.125,23.971,13,25.028,13,26.392V27  c0,1.105,0.895,2,2,2h2C15.895,29,15,28.105,15,27z" fill="#8A2C47" id="XMLID_374_"/><path d="M14,5h2c1.105,0,2,0.895,2,2v0.608c0,2.309,2.5,3.753,4.5,2.598l0.526-0.304  c0.957-0.552,2.18-0.225,2.732,0.732l1,1.732c0.136,0.236,0.218,0.488,0.251,0.742l0.017-0.01c0.957-0.552,1.284-1.775,0.732-2.732  l-1-1.732c-0.552-0.957-1.775-1.284-2.732-0.732L23.5,8.206C21.5,9.36,19,7.917,19,5.608V5c0-1.105-0.895-2-2-2h-2  c-1.105,0-2,0.895-2,2v0.277C13.295,5.106,13.634,5,14,5z" fill="#C6627E" id="XMLID_375_"/><path d="M27.026,18.902L26.5,18.598c-1.078-0.622-1.555-1.746-1.471-2.832  c-1.494,1.309-1.35,3.781,0.471,4.832l0.526,0.304c0.741,0.428,1.099,1.258,0.968,2.055l0.764-1.323  C28.311,20.677,27.983,19.454,27.026,18.902z" fill="#C6627E" id="XMLID_376_"/><path d="M4.242,10.634C4.794,9.677,6.017,9.35,6.974,9.902L7.5,10.206  c1.928,1.113,4.313-0.19,4.483-2.354c-0.912,0.8-2.286,1.045-3.483,0.354L7.974,7.902C7.017,7.35,5.794,7.677,5.242,8.634l-1,1.732  c-0.124,0.215-0.198,0.445-0.236,0.676L4.242,10.634z" fill="#C6627E" id="XMLID_377_"/><circle cx="16" cy="16" fill="#F9ED69" id="XMLID_934_" r="3"/><path d="M16,13c-1.086,0-2.028,0.582-2.554,1.446C13.9,14.168,14.429,14,15,14c1.657,0,3,1.343,3,3  c0,0.571-0.168,1.1-0.446,1.554C18.418,18.028,19,17.086,19,16C19,14.343,17.657,13,16,13z" fill="#FBF4A5" id="XMLID_378_"/><path d="  M27.758,10.366l-1-1.732c-0.552-0.957-1.775-1.284-2.732-0.732L23.5,8.206C21.5,9.36,19,7.917,19,5.608V5c0-1.105-0.895-2-2-2h-2  c-1.105,0-2,0.895-2,2v0.608c0,2.309-2.5,3.753-4.5,2.598L7.974,7.902C7.017,7.35,5.794,7.677,5.242,8.634l-1,1.732  c-0.552,0.957-0.225,2.18,0.732,2.732L5.5,13.402c2,1.155,2,4.041,0,5.196l-0.526,0.304c-0.957,0.552-1.284,1.775-0.732,2.732  l1,1.732c0.552,0.957,1.775,1.284,2.732,0.732L8.5,23.794c2-1.155,4.5,0.289,4.5,2.598V27c0,1.105,0.895,2,2,2h2  c1.105,0,2-0.895,2-2v-0.608c0-2.309,2.5-3.753,4.5-2.598l0.526,0.304c0.957,0.552,2.18,0.225,2.732-0.732l1-1.732  c0.552-0.957,0.225-2.18-0.732-2.732L26.5,18.598c-2-1.155-2-4.041,0-5.196l0.526-0.304C27.983,12.546,28.311,11.323,27.758,10.366z  " fill="none" id="XMLID_857_" stroke="#200F60" stroke-linecap="round" stroke-linejoin="round" stroke-miterlimit="10" stroke-width="2"/></svg>