<?xml version="1.0" encoding="iso-8859-1"?>
<svg height="800px" width="800px" version="1.1" id="Layer_1" xmlns="http://www.w3.org/2000/svg" xmlns:xlink="http://www.w3.org/1999/xlink" 
	 viewBox="0 0 512 512" xml:space="preserve">
<circle style="fill:#FFFFFF;" cx="256" cy="256" r="240"/>
<g>
	<path style="fill:#FAA85F;" d="M408.576,70.736L306.624,194.528C324.416,209.2,336,231.136,336,256h160
		C496,181.408,461.968,114.752,408.576,70.736z"/>
	<path style="fill:#FAA85F;" d="M176,256H16c0,74.592,34.032,141.248,87.424,185.264l101.952-123.792
		C187.584,302.8,176,280.864,176,256z"/>
</g>
<g>
	<path style="fill:#00384E;" d="M256,512C114.848,512,0,397.152,0,256S114.848,0,256,0s256,114.848,256,256S397.152,512,256,512z
		 M256,32C132.48,32,32,132.48,32,256s100.48,224,224,224s224-100.48,224-224S379.52,32,256,32z"/>
	<path style="fill:#00384E;" d="M256,352c-52.944,0-96-43.056-96-96s43.056-96,96-96s96,43.056,96,96S308.944,352,256,352z M256,192
		c-35.296,0-64,28.704-64,64s28.704,64,64,64s64-28.704,64-64S291.296,192,256,192z"/>
	<circle style="fill:#00384E;" cx="256" cy="256" r="32"/>
</g>
</svg>
