<?xml version="1.0" encoding="iso-8859-1"?>
<!-- Uploaded to: SVG Repo, www.svgrepo.com, Generator: SVG Repo Mixer Tools -->
<svg height="800px" width="800px" version="1.1" id="Layer_1" xmlns="http://www.w3.org/2000/svg" xmlns:xlink="http://www.w3.org/1999/xlink" 
	 viewBox="0 0 512.001 512.001" xml:space="preserve">
<g>
	<path style="fill:#85BC04;" d="M313.074,418.709v-36.295c0-33.5,27.158-60.659,60.659-60.659h36.295
		c3.492,0,6.322,2.83,6.322,6.322v36.295c0,33.5-27.158,60.659-60.659,60.659h-36.295
		C315.905,425.03,313.074,422.201,313.074,418.709z"/>
	<path style="fill:#85BC04;" d="M156.31,425.03c-33.5,0-60.659-27.158-60.659-60.659v-36.295c0-3.492,2.83-6.322,6.322-6.322h36.295
		c33.501,0,60.659,27.158,60.659,60.659v36.295c0,3.492-2.83,6.322-6.322,6.322H156.31z"/>
</g>
<g>
	<path style="fill:#79AB03;" d="M342.426,418.709v-36.295c0-33.5,27.157-60.659,60.659-60.659h-29.352
		c-33.5,0-60.659,27.157-60.659,60.659v36.295c0,3.491,2.831,6.322,6.322,6.322h29.352
		C345.257,425.03,342.426,422.201,342.426,418.709z"/>
	<path style="fill:#79AB03;" d="M125.003,364.372v-36.295c0-3.491,2.831-6.322,6.322-6.322h-29.352
		c-3.491,0-6.322,2.831-6.322,6.322v36.295c0,33.501,27.158,60.659,60.659,60.659h29.352
		C152.161,425.03,125.003,397.873,125.003,364.372z"/>
</g>
<path style="fill:#720016;" d="M305.96,44.005c-13.339-13.217-29.909-26.124-38.598-32.642c-3.244-2.434-7.279-3.774-11.361-3.774
	c-4.082,0-8.117,1.34-11.36,3.773c-8.691,6.518-25.265,19.427-38.603,32.644l-8.312,8.236v58.479h116.563V52.256L305.96,44.005z"/>
<path style="fill:#AC2201;" d="M377.873,36.056c-44.66,2.2-86.328,21.199-117.329,53.496L255.22,95.1v180.997h43.723h22.892
	c35.989,0,65.164-29.175,65.164-65.164V44.742C386.997,39.77,382.838,35.81,377.873,36.056L377.873,36.056z"/>
<path style="fill:#2C7340;" d="M256,501.128c-6.653,0-12.067-5.413-12.067-12.066V236.96h24.133v252.103
	C268.067,495.716,262.653,501.128,256,501.128z"/>
<path style="fill:#FF3501;" d="M190.167,276.096c-35.989,0-65.164-29.175-65.164-65.164V44.739c0-4.969,4.156-8.928,9.12-8.686l0,0
	c44.723,2.176,86.467,21.289,117.546,53.816c31.186,32.637,48.359,75.417,48.359,120.457v65.77H190.167z"/>
<path style="fill:#AC2201;" d="M151.537,210.933V44.74c0-2.596,1.14-4.909,2.932-6.499c-6.693-1.119-13.485-1.856-20.346-2.189
	c-4.963-0.241-9.12,3.717-9.12,8.686v166.195c0,35.989,29.175,65.164,65.164,65.164h26.477
	C180.682,276.064,151.537,246.904,151.537,210.933z"/>
<path d="M419.067,310.883h-45.335c-39.442,0-71.53,32.088-71.53,71.53v45.335c0,4.503,3.649,8.153,8.153,8.153h45.335
	c39.442,0,71.53-32.088,71.53-71.53v-45.335C427.221,314.534,423.571,310.883,419.067,310.883z M410.914,364.372
	c0,30.45-24.773,55.223-55.223,55.223h-37.181v-37.181c0-30.45,24.773-55.223,55.223-55.223h37.181V364.372z"/>
<path d="M138.268,310.883H92.933c-4.504,0-8.153,3.651-8.153,8.153v45.335c0,39.442,32.088,71.53,71.53,71.53h45.335
	c4.504,0,8.153-3.651,8.153-8.153v-45.335C209.798,342.972,177.71,310.883,138.268,310.883z M193.491,419.595H156.31
	c-30.45,0-55.223-24.773-55.223-55.223V327.19h37.181c30.45,0,55.223,24.773,55.223,55.223V419.595z"/>
<path d="M386.454,28.234c-24.697,0-48.846,5.033-71.103,14.478c-13.245-13.911-30.61-27.826-43.425-37.437
	c-9.379-7.035-22.477-7.033-31.854,0c-12.64,9.48-30.1,23.443-43.419,37.423c-21.858-9.307-45.891-14.463-71.107-14.463
	c-4.504,0-8.153,3.651-8.153,8.153v174.544c0,40.129,32.646,72.775,72.774,72.775h42.895v205.357
	c0,12.647,10.29,22.937,22.938,22.937c12.649,0,22.938-10.29,22.938-22.937V283.706h42.895c40.128,0,72.774-32.646,72.774-72.775
	V36.387C394.607,31.884,390.958,28.234,386.454,28.234z M249.858,18.321c3.616-2.712,8.67-2.712,12.285,0
	c9.214,6.911,24.976,19.259,37.696,31.863c-16.097,8.705-30.924,19.851-43.9,33.18c-12.794-13.137-27.542-24.361-43.781-33.18
	C224.931,37.528,240.786,25.123,249.858,18.321z M262.632,489.062c0,3.656-2.974,6.63-6.631,6.63s-6.631-2.974-6.631-6.63V283.706
	h13.262v205.357H262.632z M378.301,210.931c0,31.186-25.282,56.468-56.468,56.468h-14.194v-36.731c0-4.502-3.649-8.151-8.151-8.151
	h-0.003c-4.502,0-8.151,3.649-8.151,8.151v36.731H190.169c-31.186,0-56.468-25.282-56.468-56.468V44.739
	c81.494,3.966,147.718,67.056,156.606,147.185c0.456,4.102,3.965,7.183,8.091,7.183l0,0c4.86,0,8.648-4.228,8.11-9.058
	c-3.96-35.569-18.207-68.076-39.691-94.475c29.326-30.552,69.247-48.752,111.482-50.832L378.301,210.931L378.301,210.931z"/>
</svg>