<?xml version="1.0" encoding="iso-8859-1"?>
<!-- Uploaded to: SVG Repo, www.svgrepo.com, Generator: SVG Repo Mixer Tools -->
<svg height="800px" width="800px" version="1.1" id="Layer_1" xmlns="http://www.w3.org/2000/svg" xmlns:xlink="http://www.w3.org/1999/xlink" 
	 viewBox="0 0 512.341 512.341" xml:space="preserve">
<g transform="translate(0 1)">
	<g>
		<path style="fill:#FFE100;" d="M290.475,357.571c-4.267,0-7.68-3.413-8.533-7.68c-2.56-18.773,0-29.867,1.707-39.253
			c1.707-9.387,3.413-15.36-1.707-26.453c-1.707-4.267,0-9.387,4.267-11.093s9.387,0,11.093,4.267
			c6.827,16.213,5.12,25.6,2.56,36.693c-1.707,8.533-3.413,17.92-1.707,34.133C299.008,352.451,295.595,356.717,290.475,357.571
			C291.328,357.571,290.475,357.571,290.475,357.571z"/>
		<path style="fill:#FFE100;" d="M273.408,357.571c-2.56,0-5.12-0.853-6.827-3.413c-11.093-14.507-11.093-26.453-10.24-37.547
			c0.853-10.24,0.853-18.773-6.827-31.573c-2.56-4.267-1.707-9.387,2.56-11.947c4.267-2.56,9.387-1.707,11.947,2.56
			c11.093,17.067,10.24,30.72,10.24,40.96c0,9.387-0.853,17.067,6.827,25.6c2.56,3.413,2.56,9.387-1.707,11.947
			C276.821,356.717,275.115,357.571,273.408,357.571z"/>
		<path style="fill:#FFE100;" d="M307.541,357.571c-5.12,0-8.533-3.413-8.533-8.533c0-11.093,5.12-17.92,11.093-25.6
			c6.827-9.387,14.507-19.627,14.507-42.667c0-5.12,3.413-8.533,8.533-8.533s8.533,3.413,8.533,8.533
			c0,29.867-10.24,43.52-17.92,53.76c-5.12,5.973-7.68,9.387-7.68,14.507S312.661,357.571,307.541,357.571z"/>
		<path style="fill:#FFE100;" d="M299.008,246.637c-3.413,0-6.827-1.707-7.68-5.12c-6.827-16.213-5.12-25.6-2.56-36.693
			c1.707-8.533,3.413-17.92,1.707-34.133c-0.853-4.267,2.56-8.533,7.68-9.387c5.12-0.853,8.533,2.56,9.387,7.68
			c2.56,18.773,0,29.867-1.707,39.253c-1.707,9.387-3.413,15.36,1.707,26.453c1.707,4.267,0,9.387-4.267,11.093
			C301.568,246.637,299.861,246.637,299.008,246.637z"/>
		<path style="fill:#FFE100;" d="M333.141,246.637c-2.56,0-5.973-1.707-6.827-4.267c-11.093-17.067-10.24-30.72-10.24-40.96
			c0-9.387,0.853-17.067-6.827-26.453c-0.853-1.707-1.707-3.413-1.707-5.12c0-5.12,3.413-8.533,8.533-8.533
			c2.56,0,5.12,1.707,6.827,3.413c11.093,13.653,10.24,26.453,10.24,36.693c-0.853,10.24-0.853,18.773,6.827,31.573
			c2.56,4.267,1.707,9.387-2.56,11.947C336.555,245.784,334.848,246.637,333.141,246.637z"/>
		<path style="fill:#FFE100;" d="M256.341,246.637c-5.12,0-8.533-3.413-8.533-8.533c0-29.867,10.24-43.52,17.92-53.76
			c5.12-5.973,7.68-9.387,7.68-14.507c0-5.12,3.413-8.533,8.533-8.533s8.533,3.413,8.533,8.533c0,11.093-5.12,17.92-11.093,25.6
			c-6.827,8.533-14.507,18.773-14.507,42.667C264.875,242.371,261.461,246.637,256.341,246.637z"/>
		<path style="fill:#FFE100;" d="M409.941,7.704h-42.667c-52.053,0-93.867,41.813-93.867,93.867v68.267h34.133v-68.267
			c0-33.28,26.453-59.733,59.733-59.733h42.667c33.28,0,59.733,26.453,59.733,59.733v401.067h34.133V101.571
			C503.808,49.517,461.995,7.704,409.941,7.704"/>
		<path style="fill:#FFE100;" d="M85.675,383.171v25.6c0,52.053,41.813,93.867,93.867,93.867h25.6
			c52.053,0,93.867-41.813,93.867-93.867v-59.733h-34.133v59.733c0,33.28-26.453,59.733-59.733,59.733h-25.6
			c-33.28,0-59.733-26.453-59.733-59.733v-25.6H85.675z"/>
		<polygon style="fill:#FFE100;" points="43.008,110.104 162.475,110.104 162.475,7.704 43.008,7.704 		"/>
	</g>
	<polygon style="fill:#FFA800;" points="145.408,110.104 162.475,110.104 162.475,7.704 145.408,7.704 	"/>
	<polygon style="fill:#FFFFFF;" points="43.008,110.104 60.075,110.104 60.075,7.704 43.008,7.704 	"/>
	<path style="fill:#FFE100;" d="M178.688,331.971H26.795c-12.8,0-21.333-12.8-16.213-24.747l0.853-1.707
		c4.267-11.093,6.827-22.187,6.827-34.133V118.637c0-5.12,3.413-8.533,8.533-8.533h153.6c5.12,0,8.533,3.413,8.533,8.533v152.747
		c0,11.947,2.56,23.04,6.827,34.133l0.853,1.707C200.021,319.171,191.488,331.971,178.688,331.971"/>
	<path style="fill:#FFA800;" d="M194.901,307.224l-0.853-1.707c-4.267-11.093-6.827-22.187-6.827-34.133V118.637
		c0-5.12-3.413-8.533-8.533-8.533h-25.6c5.12,0,8.533,3.413,8.533,8.533v152.747c0,11.947,2.56,23.04,6.827,34.133l0.853,1.707
		c4.267,11.947-4.267,24.747-16.213,24.747h25.6C191.488,331.971,200.021,319.171,194.901,307.224"/>
	<path style="fill:#FFFFFF;" d="M9.728,307.224l0.853-1.707c4.267-11.093,6.827-22.187,6.827-34.133V118.637
		c0-5.12,3.413-8.533,8.533-8.533h25.6c-5.12,0-8.533,3.413-8.533,8.533v152.747c0,11.947-2.56,23.04-6.827,34.133l-0.853,1.707
		c-4.267,11.947,4.267,24.747,17.067,24.747h-25.6C13.995,331.971,5.461,319.171,9.728,307.224"/>
	<path style="fill:#FFE100;" d="M128.341,383.171h-51.2c-5.12,0-8.533-3.413-8.533-8.533v-42.667h68.267v42.667
		C136.875,379.757,132.608,383.171,128.341,383.171"/>
	<path style="fill:#FFA800;" d="M119.808,331.971v42.667c0,5.12-3.413,8.533-8.533,8.533h17.067c5.12,0,8.533-3.413,8.533-8.533
		v-42.667H119.808z"/>
	<path style="fill:#FFFFFF;" d="M85.675,331.971v42.667c0,5.12,3.413,8.533,8.533,8.533H77.141c-5.12,0-8.533-3.413-8.533-8.533
		v-42.667H85.675z"/>
	<path d="M162.475,118.637H43.008c-5.12,0-8.533-3.413-8.533-8.533V7.704c0-5.12,3.413-8.533,8.533-8.533h119.467
		c5.12,0,8.533,3.413,8.533,8.533v102.4C171.008,115.224,167.595,118.637,162.475,118.637z M51.541,101.571h102.4V16.237h-102.4
		V101.571z"/>
	<path d="M178.688,340.504H26.795c-8.533,0-17.067-4.267-22.187-11.947c-5.12-6.827-5.973-16.213-2.56-24.747l0.853-1.707
		c4.267-9.387,5.973-19.627,5.973-30.72V118.637c0-9.387,7.68-17.067,17.067-17.067h153.6c9.387,0,17.067,7.68,17.067,17.067
		v152.747c0,11.093,1.707,21.333,5.973,30.72l0.853,1.707c3.413,8.533,2.56,17.067-2.56,24.747
		C195.755,336.237,188.075,340.504,178.688,340.504z M25.941,118.637v152.747c0,12.8-2.56,25.6-6.827,37.547l-0.853,1.707
		c-0.853,2.56-0.853,5.973,0.853,8.533c1.707,2.56,4.267,4.267,7.68,4.267h151.893c3.413,0,5.973-1.707,7.68-4.267
		c1.707-2.56,1.707-5.973,0.853-8.533l-0.853-1.707c-5.12-11.947-6.827-24.747-6.827-37.547V118.637H25.941z"/>
	<path d="M128.341,391.704h-51.2c-4.267,0-8.533-1.707-11.947-5.12c-3.413-3.413-5.12-7.68-5.12-11.947v-42.667
		c0-5.12,3.413-8.533,8.533-8.533h68.267c2.56,0,4.267,0.853,5.973,2.56c1.707,1.707,2.56,3.413,2.56,5.973v42.667
		C145.408,384.024,137.728,391.704,128.341,391.704z M77.141,340.504v34.133h51.2v-34.133H77.141z"/>
	<path d="M77.141,75.971c-4.267,0-8.533-3.413-8.533-8.533V33.304c0-5.12,3.413-8.533,8.533-8.533s8.533,3.413,8.533,8.533v34.133
		C85.675,72.557,82.261,75.971,77.141,75.971z"/>
	<path d="M128.341,75.971c-5.12,0-8.533-3.413-8.533-8.533V33.304c0-5.12,3.413-8.533,8.533-8.533c5.12,0,8.533,3.413,8.533,8.533
		v34.133C136.875,72.557,133.461,75.971,128.341,75.971z"/>
	<path d="M281.941,357.571c-4.267,0-7.68-3.413-8.533-7.68c-2.56-18.773,0-29.867,1.707-39.253s3.413-15.36-1.707-26.453
		c-1.707-4.267,0-9.387,4.267-11.093s9.387,0,11.093,4.267c6.827,16.213,5.12,25.6,2.56,36.693
		c-1.707,8.533-3.413,17.92-1.707,34.133C290.475,352.451,287.061,356.717,281.941,357.571
		C282.795,357.571,281.941,357.571,281.941,357.571z"/>
	<path d="M264.875,357.571c-2.56,0-5.12-0.853-6.827-3.413c-11.093-14.507-11.093-26.453-10.24-37.547
		c0.853-10.24,0.853-18.773-6.827-31.573c-2.56-4.267-1.707-9.387,2.56-11.947c4.267-2.56,9.387-1.707,11.947,2.56
		c11.093,17.067,10.24,30.72,10.24,40.96c0,9.387-0.853,17.067,6.827,25.6c2.56,3.413,2.56,9.387-1.707,11.947
		C268.288,356.717,266.581,357.571,264.875,357.571z"/>
	<path d="M299.008,357.571c-5.12,0-8.533-3.413-8.533-8.533c0-11.093,5.12-17.92,11.093-25.6
		c6.827-9.387,14.507-19.627,14.507-42.667c0-5.12,3.413-8.533,8.533-8.533c5.12,0,8.533,3.413,8.533,8.533
		c0,29.867-10.24,43.52-17.92,53.76c-5.12,5.973-7.68,9.387-7.68,14.507S304.128,357.571,299.008,357.571z"/>
	<path d="M290.475,246.637c-3.413,0-6.827-1.707-7.68-5.12c-6.827-16.213-5.12-25.6-2.56-36.693
		c1.707-8.533,3.413-17.92,1.707-34.133c-0.853-4.267,2.56-8.533,7.68-9.387c5.12-0.853,8.533,2.56,9.387,7.68
		c2.56,18.773,0,29.867-1.707,39.253c-1.707,9.387-3.413,15.36,1.707,26.453c1.707,4.267,0,9.387-4.267,11.093
		C293.035,246.637,291.328,246.637,290.475,246.637z"/>
	<path d="M324.608,246.637c-2.56,0-5.973-1.707-6.827-4.267c-11.093-17.067-10.24-30.72-10.24-40.96
		c0-9.387,0.853-17.067-6.827-26.453c-0.853-0.853-1.707-3.413-1.707-5.12c0-5.12,3.413-8.533,8.533-8.533
		c2.56,0,5.12,1.707,6.827,3.413c11.093,13.653,10.24,26.453,10.24,36.693c-0.853,10.24-0.853,18.773,6.827,31.573
		c2.56,4.267,1.707,9.387-2.56,11.947C328.021,246.637,326.315,246.637,324.608,246.637z"/>
	<path d="M247.808,246.637c-5.12,0-8.533-3.413-8.533-8.533c0-29.867,10.24-43.52,17.92-53.76c5.12-5.973,7.68-9.387,7.68-14.507
		c0-5.12,3.413-8.533,8.533-8.533s8.533,3.413,8.533,8.533c0,11.093-5.12,17.92-11.093,25.6
		c-6.827,8.533-14.507,18.773-14.507,42.667C256.341,243.224,252.928,246.637,247.808,246.637z"/>
	<path d="M503.808,511.171h-34.133c-5.12,0-8.533-3.413-8.533-8.533V101.571c0-28.16-23.04-51.2-51.2-51.2h-42.667
		c-28.16,0-51.2,23.04-51.2,51.2v68.267c0,5.12-3.413,8.533-8.533,8.533h-34.133c-5.12,0-8.533-3.413-8.533-8.533v-68.267
		c0-56.32,46.08-102.4,102.4-102.4h42.667c56.32,0,102.4,46.08,102.4,102.4v401.067
		C512.341,507.757,508.928,511.171,503.808,511.171z M478.208,494.104h17.067V101.571c0-46.933-38.4-85.333-85.333-85.333h-42.667
		c-46.933,0-85.333,38.4-85.333,85.333v59.733h17.067v-59.733c0-37.547,30.72-68.267,68.267-68.267h42.667
		c37.547,0,68.267,30.72,68.267,68.267V494.104z"/>
	<path d="M205.141,511.171h-25.6c-56.32,0-102.4-46.08-102.4-102.4v-25.6c0-5.12,3.413-8.533,8.533-8.533h34.133
		c5.12,0,8.533,3.413,8.533,8.533v25.6c0,28.16,23.04,51.2,51.2,51.2h25.6c28.16,0,51.2-23.04,51.2-51.2v-59.733
		c0-5.12,3.413-8.533,8.533-8.533h34.133c5.12,0,8.533,3.413,8.533,8.533v59.733C307.541,465.091,261.461,511.171,205.141,511.171z
		 M94.208,391.704v17.067c0,46.933,38.4,85.333,85.333,85.333h25.6c46.933,0,85.333-38.4,85.333-85.333v-51.2h-17.067v51.2
		c0,37.547-30.72,68.267-68.267,68.267h-25.6c-37.547,0-68.267-30.72-68.267-68.267v-17.067H94.208z"/>
</g>
</svg>