<?xml version="1.0" encoding="utf-8"?>
<!-- Uploaded to: SVG Repo, www.svgrepo.com, Generator: SVG Repo Mixer Tools -->
<svg width="800px" height="800px" viewBox="0 0 1024 1024" class="icon"  version="1.1" xmlns="http://www.w3.org/2000/svg"><path d="M509.735822 511.988622m-420.534044 0a420.534044 420.534044 0 1 0 841.068089 0 420.534044 420.534044 0 1 0-841.068089 0Z" fill="#49DB95" /><path d="M509.735822 511.988622m-330.3424 0a330.3424 330.3424 0 1 0 660.6848 0 330.3424 330.3424 0 1 0-660.6848 0Z" fill="#F2F2F2" /><path d="M509.724444 181.646222c-8.817778 0-17.567289 0.352711-26.2144 1.035378C653.710222 196.039111 787.6608 338.375111 787.6608 512S653.7216 827.960889 483.521422 841.3184c8.647111 0.682667 17.396622 1.035378 26.2144 1.035378 182.454044 0 330.365156-147.911111 330.365156-330.365156S692.178489 181.646222 509.724444 181.646222z" fill="#CCCCCC" /><path d="M480.3584 483.441778l5.165511-5.165511 110.6944-110.6944a40.96 40.96 0 1 1 57.935645 57.924266L567.671467 512" fill="#47A7DD" /><path d="M705.274311 707.549867a40.994133 40.994133 0 0 0 0-57.935645L538.294044 482.633956a40.96 40.96 0 1 0-57.924266 57.924266l166.991644 166.991645a40.925867 40.925867 0 0 0 57.912889 0z" fill="#47A7DD" /><path d="M875.838578 273.499022A437.589333 437.589333 0 0 0 692.610844 115.108978a16.372622 16.372622 0 1 0-13.732977 29.752889 404.844089 404.844089 0 0 1 169.506133 146.545777A402.432 402.432 0 0 1 913.863111 512c0 222.845156-181.293511 404.138667-404.138667 404.138667-222.845156 0-404.138667-181.293511-404.138666-404.138667 0-222.833778 181.293511-404.138667 404.138666-404.138667 36.431644 0 72.533333 4.846933 107.303823 14.392889a16.384 16.384 0 1 0 8.692622-31.596089A437.953422 437.953422 0 0 0 509.724444 75.093333C268.811378 75.093333 72.817778 271.086933 72.817778 512s195.9936 436.906667 436.906666 436.906667 436.906667-196.004978 436.906667-436.906667a435.0976 435.0976 0 0 0-70.792533-238.500978z" fill="" /><path d="M315.847111 799.516444a344.974222 344.974222 0 0 0 193.877333 59.221334c191.192178 0 346.749156-155.5456 346.749156-346.737778 0-191.192178-155.5456-346.749156-346.749156-346.749156-191.192178 0-346.737778 155.556978-346.737777 346.749156 0 95.266133 37.842489 184.092444 106.575644 250.083556a16.372622 16.372622 0 1 0 22.698667-23.620267c-62.225067-59.778844-96.506311-140.196978-96.506311-226.463289 0-173.124267 140.845511-313.969778 313.969777-313.969778S823.694222 338.875733 823.694222 512 682.848711 825.969778 509.724444 825.969778a312.433778 312.433778 0 0 1-175.536355-53.612089 16.406756 16.406756 0 0 0-22.755556 4.4032 16.406756 16.406756 0 0 0 4.414578 22.755555z" fill="" /><path d="M665.747911 355.987911a57.412267 57.412267 0 0 0-81.1008 0l-109.784178 109.784178a57.014044 57.014044 0 0 0-21.276444 32.438044l-177.060978 34.941156a16.384 16.384 0 0 0 6.337422 32.1536l172.600889-34.065067a56.991289 56.991289 0 0 0 13.312 20.912356l74.228622 74.228622a16.384 16.384 0 0 0 23.176534-23.165156l-74.228622-74.228622c-4.642133-4.642133-7.202133-10.808889-7.202134-17.373866s2.56-12.743111 7.202134-17.385245a24.416711 24.416711 0 0 1 17.373866-7.190755c6.564978 0 12.731733 2.56 17.373867 7.190755L693.703111 661.219556a24.610133 24.610133 0 0 1 0 34.759111 24.610133 24.610133 0 0 1-34.759111 0l-56.706844-56.706845a16.384 16.384 0 1 0-23.165156 23.165156l56.706844 56.706844a57.173333 57.173333 0 0 0 40.539023 16.770845 57.070933 57.070933 0 0 0 40.539022-16.782223 57.400889 57.400889 0 0 0 0-81.089422L590.848 512l74.911289-74.911289a57.423644 57.423644 0 0 0-0.011378-81.1008z m-23.165155 57.935645l-74.911289 74.911288-17.772089-17.772088a57.321244 57.321244 0 0 0-20.696178-13.266489l78.620444-78.620445a24.621511 24.621511 0 0 1 34.770489 0c9.557333 9.568711 9.557333 25.167644-0.011377 34.747734z" fill="" /></svg>