<?xml version="1.0" encoding="utf-8"?><!-- Uploaded to: SVG Repo, www.svgrepo.com, Generator: SVG Repo Mixer Tools -->
<svg fill="#000000" width="800px" height="800px" viewBox="0 0 24 24" id="address-book" data-name="Flat Line" xmlns="http://www.w3.org/2000/svg" class="icon flat-line"><rect id="secondary" x="4" y="3" width="15" height="18" rx="1" style="fill: rgb(44, 169, 188); stroke-width: 2;"></rect><path id="primary" d="M21,7H19V9h2Zm0,6H19v2h2Zm-3,8H5a1,1,0,0,1-1-1V4A1,1,0,0,1,5,3H18a1,1,0,0,1,1,1V20A1,1,0,0,1,18,21ZM5,8H3m2,4H3m2,4H3" style="fill: none; stroke: rgb(0, 0, 0); stroke-linecap: round; stroke-linejoin: round; stroke-width: 2;"></path></svg>