<?xml version="1.0" encoding="iso-8859-1"?>
<!-- Uploaded to: SVG Repo, www.svgrepo.com, Generator: SVG Repo Mixer Tools -->
<svg version="1.1" id="Layer_1" xmlns="http://www.w3.org/2000/svg" xmlns:xlink="http://www.w3.org/1999/xlink" 
	 viewBox="0 0 512 512" xml:space="preserve">
<circle style="fill:#FEF5CC;" cx="256" cy="256" r="248.163"/>
<path style="fill:#D07400;" d="M369.227,176.05c0-4.601,1.236-8.91,3.385-12.624l-94.747-54.703
	c-4.367,7.546-12.52,12.628-21.866,12.628c-9.346,0-17.499-5.081-21.866-12.628l-94.747,54.703
	c2.149,3.715,3.385,8.024,3.385,12.624c0,13.946-11.306,25.252-25.251,25.252V310.7c13.946,0,25.251,11.306,25.251,25.252
	c0,4.601-1.236,8.91-3.385,12.624l94.747,54.702c4.367-7.546,12.52-12.628,21.866-12.628c9.346,0,17.5,5.081,21.866,12.628
	l94.747-54.702c-2.149-3.715-3.385-8.024-3.385-12.624c0-13.946,11.306-25.252,25.252-25.252v-109.4
	C380.533,201.301,369.227,189.995,369.227,176.05z"/>
<polygon style="fill:#FF9911;" points="139.212,188.573 256,121.144 372.788,188.573 372.788,323.427 256,390.856 139.212,323.427 
	"/>
<g>
	<circle style="fill:#FED322;" cx="256.042" cy="256" r="25.255"/>
	<path style="fill:#FED322;" d="M281.252,415.902c0,13.946-11.306,25.252-25.252,25.252c-13.946,0-25.252-11.306-25.252-25.252
		S242.054,390.65,256,390.65S281.252,401.956,281.252,415.902z M256,70.847c-13.946,0-25.252,11.306-25.252,25.252
		s11.306,25.252,25.252,25.252s25.252-11.306,25.252-25.252S269.946,70.847,256,70.847z M117.522,150.798
		c-13.946,0-25.252,11.306-25.252,25.252c0,13.946,11.306,25.252,25.252,25.252s25.252-11.306,25.252-25.252
		C142.774,162.103,131.467,150.798,117.522,150.798z M394.478,150.798c-13.946,0-25.252,11.306-25.252,25.252
		c0,13.946,11.306,25.252,25.252,25.252c13.946,0,25.252-11.306,25.252-25.252C419.73,162.103,408.424,150.798,394.478,150.798z
		 M117.522,310.699c-13.946,0-25.252,11.306-25.252,25.252s11.306,25.252,25.252,25.252s25.252-11.306,25.252-25.252
		C142.773,322.005,131.467,310.699,117.522,310.699z M394.478,310.699c-13.946,0-25.252,11.306-25.252,25.252
		s11.306,25.252,25.252,25.252c13.946,0,25.252-11.306,25.252-25.252S408.424,310.699,394.478,310.699z"/>
</g>
<g>
	<path style="fill:#010101;" d="M289.127,256c0-15.546-10.779-28.615-25.254-32.143l-0.003-8.783l-15.673,0.006l0.003,8.779
		c-14.472,3.531-25.249,16.598-25.249,32.142c0,3.216,0.47,6.323,1.329,9.264l-7.609,4.393l7.837,13.573l7.617-4.398
		c6.029,6.312,14.517,10.256,23.914,10.256c9.382,0,17.858-3.932,23.886-10.226l7.625,4.402l7.837-13.573l-7.6-4.388
		C288.654,262.35,289.127,259.23,289.127,256z M256.039,273.415c-9.603,0-17.415-7.813-17.415-17.415
		c0-9.603,7.813-17.415,17.415-17.415c9.603,0,17.415,7.813,17.415,17.415C273.454,265.603,265.642,273.415,256.039,273.415z"/>
	<path style="fill:#010101;" d="M418.925,358.224l7.781,4.451l7.781-13.605l-8.038-4.599c0.726-2.721,1.118-5.576,1.118-8.522
		c0-15.545-10.778-28.613-25.252-32.143v-95.615c14.474-3.53,25.252-16.598,25.252-32.143c0-3.493-0.549-6.86-1.556-10.023
		l7.734-4.506l-7.89-13.543l-8.011,4.667c-5.99-5.98-14.253-9.683-23.367-9.683c-9.389,0-17.872,3.938-23.9,10.241l-82.825-47.82
		c0.863-2.948,1.335-6.06,1.335-9.283c0-15.545-10.778-28.613-25.252-32.143v-9.099h-15.673v9.099
		c-14.474,3.53-25.252,16.598-25.252,32.143c0,3.222,0.471,6.335,1.334,9.283l-82.825,47.821c-6.028-6.303-14.51-10.241-23.9-10.241
		c-9.674,0-18.39,4.173-24.446,10.814l-21.108-12.077l-7.782,13.605l21.369,12.224c-0.726,2.721-1.118,5.576-1.118,8.522
		c0,15.545,10.778,28.613,25.252,32.143v95.616c-14.474,3.53-25.252,16.598-25.252,32.143c0,3.493,0.549,6.86,1.556,10.023
		l-21.003,12.237l7.89,13.543l21.28-12.398c5.99,5.98,14.253,9.683,23.366,9.683c9.389,0,17.872-3.938,23.9-10.241l82.825,47.821
		c-0.863,2.948-1.334,6.06-1.334,9.283c0,15.545,10.778,28.613,25.252,32.143v24.456h15.673v-24.456
		c14.474-3.53,25.252-16.598,25.252-32.143c0-3.222-0.471-6.335-1.334-9.283l82.826-47.82c6.028,6.303,14.509,10.24,23.899,10.24
		C404.152,369.039,412.869,364.865,418.925,358.224z M411.894,176.049c0,9.603-7.813,17.415-17.415,17.415
		c-9.602,0-17.414-7.813-17.414-17.415c0-0.528,0.032-1.047,0.079-1.563c0.013-0.136,0.025-0.272,0.041-0.406
		c0.056-0.494,0.128-0.984,0.225-1.465c0.021-0.101,0.048-0.202,0.071-0.303c0.088-0.398,0.189-0.791,0.304-1.18
		c0.044-0.147,0.087-0.295,0.134-0.441c0.149-0.459,0.311-0.912,0.496-1.354c0.033-0.081,0.074-0.161,0.11-0.241
		c0.17-0.391,0.356-0.773,0.554-1.148c0.059-0.112,0.117-0.224,0.179-0.333c2.976-5.349,8.681-8.98,15.224-8.98
		C404.082,158.634,411.894,166.447,411.894,176.049z M256,78.684c9.603,0,17.415,7.813,17.415,17.415
		c0,3.593-1.095,6.936-2.967,9.712c-0.02,0.029-0.042,0.056-0.062,0.086c-0.261,0.381-0.54,0.749-0.83,1.109
		c-0.087,0.108-0.174,0.213-0.263,0.318c-0.276,0.327-0.563,0.644-0.862,0.949c-0.068,0.069-0.134,0.14-0.203,0.207
		c-0.307,0.304-0.63,0.591-0.959,0.872c-0.153,0.13-0.307,0.255-0.463,0.378c-0.228,0.181-0.462,0.353-0.699,0.522
		c-0.265,0.189-0.535,0.371-0.81,0.545c-0.234,0.148-0.47,0.295-0.712,0.433c-0.226,0.129-0.456,0.25-0.688,0.368
		c-0.193,0.098-0.39,0.191-0.587,0.283c-0.355,0.165-0.717,0.319-1.082,0.46c-0.247,0.095-0.493,0.189-0.746,0.274
		c-0.227,0.075-0.456,0.144-0.685,0.21c-0.296,0.085-0.595,0.162-0.897,0.231c-0.192,0.045-0.383,0.092-0.577,0.13
		c-0.437,0.085-0.879,0.152-1.326,0.203c-0.149,0.018-0.3,0.031-0.45,0.045c-0.511,0.045-1.026,0.078-1.549,0.078
		c-0.522,0-1.038-0.033-1.549-0.078c-0.15-0.014-0.3-0.028-0.449-0.045c-0.449-0.051-0.893-0.119-1.332-0.204
		c-0.191-0.038-0.379-0.085-0.568-0.129c-0.303-0.07-0.604-0.146-0.901-0.232c-0.229-0.066-0.457-0.134-0.681-0.209
		c-0.257-0.086-0.509-0.182-0.761-0.279c-0.359-0.139-0.713-0.288-1.062-0.451c-0.202-0.094-0.402-0.188-0.6-0.289
		c-0.229-0.117-0.456-0.237-0.679-0.364c-0.25-0.142-0.494-0.294-0.737-0.448c-0.264-0.168-0.523-0.343-0.778-0.525
		c-0.242-0.173-0.482-0.35-0.715-0.535c-0.153-0.121-0.304-0.243-0.453-0.37c-0.337-0.286-0.668-0.581-0.981-0.892
		c-0.06-0.059-0.116-0.12-0.174-0.18c-0.304-0.31-0.597-0.632-0.877-0.964c-0.087-0.102-0.171-0.205-0.255-0.309
		c-0.294-0.364-0.577-0.737-0.84-1.123c-0.017-0.025-0.036-0.048-0.052-0.073c-1.874-2.777-2.97-6.121-2.97-9.715
		C238.585,86.496,246.397,78.684,256,78.684z M100.106,176.049c0-9.602,7.813-17.414,17.415-17.414
		c6.543,0,12.248,3.631,15.224,8.98c0.062,0.111,0.12,0.223,0.179,0.334c0.197,0.374,0.382,0.757,0.553,1.146
		c0.036,0.082,0.076,0.162,0.111,0.243c0.185,0.441,0.347,0.893,0.495,1.352c0.048,0.147,0.091,0.296,0.135,0.444
		c0.114,0.386,0.215,0.776,0.302,1.173c0.023,0.103,0.051,0.205,0.072,0.308c0.096,0.481,0.168,0.97,0.224,1.463
		c0.016,0.136,0.028,0.272,0.041,0.409c0.046,0.515,0.079,1.034,0.079,1.562c0,9.603-7.813,17.415-17.415,17.415
		S100.106,185.652,100.106,176.049z M100.106,335.951c0-9.603,7.813-17.415,17.415-17.415s17.415,7.813,17.415,17.415
		c0,0.528-0.033,1.047-0.079,1.562c-0.013,0.136-0.025,0.273-0.041,0.409c-0.056,0.493-0.127,0.982-0.224,1.463
		c-0.021,0.103-0.049,0.205-0.072,0.308c-0.087,0.396-0.188,0.787-0.302,1.173c-0.044,0.148-0.087,0.297-0.135,0.444
		c-0.148,0.459-0.311,0.911-0.496,1.352c-0.034,0.081-0.074,0.161-0.11,0.242c-0.17,0.39-0.355,0.772-0.554,1.147
		c-0.059,0.112-0.117,0.224-0.179,0.334c-2.976,5.349-8.681,8.98-15.224,8.98C107.919,353.366,100.106,345.553,100.106,335.951z
		 M256,433.316c-9.603,0-17.415-7.813-17.415-17.415c0-3.594,1.096-6.938,2.97-9.715c0.017-0.025,0.036-0.048,0.052-0.073
		c0.264-0.387,0.546-0.76,0.84-1.123c0.084-0.103,0.169-0.207,0.255-0.309c0.281-0.332,0.574-0.655,0.878-0.967
		c0.057-0.059,0.112-0.118,0.17-0.176c0.315-0.312,0.647-0.607,0.984-0.894c0.148-0.126,0.3-0.249,0.453-0.37
		c0.233-0.185,0.472-0.362,0.715-0.535c0.255-0.182,0.514-0.357,0.778-0.525c0.242-0.155,0.487-0.305,0.737-0.448
		c0.224-0.126,0.45-0.247,0.679-0.364c0.196-0.1,0.397-0.195,0.598-0.288c0.35-0.163,0.706-0.313,1.067-0.452
		c0.251-0.096,0.502-0.192,0.758-0.278c0.225-0.075,0.452-0.143,0.681-0.209c0.298-0.086,0.599-0.163,0.903-0.233
		c0.189-0.044,0.377-0.091,0.567-0.127c0.438-0.086,0.883-0.153,1.332-0.204c0.149-0.018,0.299-0.031,0.449-0.045
		c0.511-0.045,1.026-0.078,1.549-0.078s1.038,0.033,1.549,0.078c0.15,0.014,0.3,0.028,0.45,0.045
		c0.447,0.051,0.89,0.118,1.326,0.203c0.194,0.038,0.386,0.086,0.577,0.13c0.302,0.069,0.601,0.146,0.897,0.231
		c0.23,0.067,0.459,0.135,0.685,0.211c0.251,0.084,0.496,0.178,0.742,0.272c0.368,0.142,0.73,0.296,1.088,0.462
		c0.196,0.092,0.393,0.184,0.585,0.282c0.232,0.118,0.462,0.24,0.688,0.369c0.241,0.138,0.478,0.284,0.712,0.433
		c0.275,0.174,0.544,0.356,0.81,0.545c0.237,0.169,0.471,0.342,0.699,0.522c0.157,0.123,0.311,0.25,0.463,0.378
		c0.329,0.281,0.652,0.568,0.959,0.872c0.069,0.068,0.135,0.138,0.203,0.207c0.299,0.305,0.586,0.622,0.862,0.949
		c0.089,0.104,0.177,0.211,0.263,0.318c0.289,0.359,0.568,0.727,0.83,1.109c0.02,0.029,0.042,0.056,0.062,0.086
		c1.872,2.776,2.967,6.119,2.967,9.712C273.415,425.504,265.603,433.316,256,433.316z M362.723,345.236l-82.812,47.811
		c-0.096-0.1-0.2-0.195-0.297-0.295c-0.185-0.188-0.372-0.373-0.561-0.557c-0.182-0.177-0.365-0.353-0.552-0.526
		c-0.248-0.231-0.502-0.456-0.757-0.678c-0.134-0.117-0.266-0.234-0.402-0.349c-0.334-0.283-0.676-0.558-1.022-0.828
		c-0.062-0.048-0.123-0.098-0.185-0.145c-5.582-4.295-12.563-6.858-20.135-6.858c-7.57,0-14.55,2.561-20.132,6.856
		c-0.066,0.05-0.13,0.102-0.195,0.154c-0.342,0.266-0.679,0.538-1.009,0.818c-0.141,0.119-0.279,0.241-0.418,0.363
		c-0.249,0.217-0.495,0.437-0.738,0.661c-0.194,0.18-0.385,0.364-0.575,0.548c-0.18,0.174-0.357,0.35-0.533,0.529
		c-0.102,0.103-0.209,0.203-0.31,0.308l-82.81-47.811c0.015-0.049,0.024-0.099,0.038-0.147c0.193-0.672,0.368-1.351,0.519-2.04
		c0.009-0.042,0.02-0.085,0.029-0.126c0.157-0.728,0.29-1.465,0.398-2.21c0.011-0.076,0.019-0.153,0.029-0.229
		c0.086-0.624,0.153-1.254,0.203-1.888c0.014-0.168,0.027-0.336,0.039-0.506c0.045-0.707,0.076-1.419,0.076-2.139
		c0-0.532-0.016-1.061-0.041-1.586c-0.008-0.171-0.023-0.342-0.033-0.512c-0.022-0.355-0.047-0.711-0.082-1.063
		c-0.019-0.196-0.042-0.391-0.064-0.586c-0.037-0.327-0.078-0.652-0.124-0.976c-0.028-0.199-0.059-0.397-0.091-0.596
		c-0.052-0.324-0.111-0.646-0.173-0.967c-0.037-0.188-0.071-0.376-0.111-0.562c-0.074-0.353-0.158-0.702-0.243-1.051
		c-0.037-0.147-0.069-0.297-0.107-0.443c-0.083-0.317-0.175-0.63-0.266-0.944l7.603-4.39l-7.837-13.573l-7.617,4.398
		c-0.082-0.085-0.164-0.167-0.246-0.251c-0.124-0.127-0.247-0.257-0.373-0.382c-0.277-0.275-0.56-0.542-0.846-0.808
		c-0.077-0.071-0.152-0.145-0.229-0.216c-0.363-0.329-0.734-0.65-1.111-0.962c-0.117-0.097-0.238-0.19-0.356-0.285
		c-0.266-0.215-0.535-0.428-0.809-0.635c-0.152-0.115-0.306-0.226-0.46-0.338c-0.249-0.182-0.499-0.362-0.753-0.536
		c-0.164-0.113-0.33-0.225-0.496-0.334c-0.255-0.168-0.512-0.333-0.771-0.495c-0.165-0.103-0.33-0.207-0.497-0.306
		c-0.28-0.168-0.565-0.33-0.851-0.49c-0.149-0.084-0.298-0.17-0.449-0.252c-0.401-0.216-0.807-0.424-1.217-0.625
		c-0.042-0.021-0.083-0.043-0.124-0.063c-0.443-0.213-0.892-0.415-1.346-0.609c-0.156-0.067-0.315-0.127-0.471-0.192
		c-0.309-0.126-0.619-0.251-0.932-0.368c-0.183-0.069-0.369-0.134-0.553-0.199c-0.294-0.104-0.589-0.205-0.887-0.301
		c-0.193-0.063-0.387-0.123-0.582-0.182c-0.301-0.091-0.604-0.176-0.909-0.258c-0.189-0.051-0.378-0.103-0.569-0.151
		c-0.076-0.019-0.152-0.042-0.228-0.061v-95.6c0.076-0.019,0.152-0.042,0.228-0.061c0.191-0.048,0.38-0.1,0.569-0.152
		c0.304-0.083,0.607-0.167,0.909-0.258c0.194-0.059,0.389-0.12,0.582-0.182c0.298-0.096,0.592-0.196,0.887-0.301
		c0.185-0.066,0.37-0.13,0.553-0.199c0.315-0.118,0.626-0.242,0.936-0.37c0.156-0.064,0.312-0.124,0.466-0.19
		c0.453-0.194,0.904-0.396,1.347-0.61c0.042-0.02,0.083-0.042,0.123-0.063c0.411-0.2,0.816-0.409,1.217-0.625
		c0.152-0.082,0.299-0.168,0.449-0.252c0.286-0.16,0.571-0.322,0.851-0.49c0.167-0.1,0.332-0.204,0.497-0.306
		c0.259-0.162,0.517-0.326,0.771-0.495c0.166-0.111,0.332-0.222,0.496-0.334c0.254-0.174,0.505-0.354,0.753-0.536
		c0.154-0.112,0.308-0.224,0.46-0.338c0.274-0.207,0.541-0.42,0.809-0.635c0.118-0.096,0.239-0.188,0.356-0.285
		c0.377-0.313,0.748-0.633,1.111-0.962c0.077-0.07,0.152-0.144,0.229-0.216c0.286-0.264,0.569-0.533,0.846-0.808
		c0.126-0.125,0.249-0.255,0.373-0.382c0.223-0.228,0.443-0.457,0.658-0.691c0.133-0.143,0.262-0.289,0.392-0.435
		c0.203-0.228,0.402-0.458,0.599-0.691c0.126-0.15,0.253-0.301,0.377-0.455c0.197-0.243,0.391-0.491,0.582-0.74
		c0.112-0.145,0.225-0.289,0.333-0.437c0.219-0.297,0.433-0.599,0.643-0.903c0.072-0.103,0.146-0.206,0.217-0.31
		c0.276-0.41,0.542-0.825,0.8-1.248c0.068-0.111,0.131-0.224,0.196-0.335c0.188-0.317,0.374-0.635,0.552-0.958
		c0.088-0.16,0.171-0.322,0.256-0.483c0.149-0.282,0.296-0.566,0.438-0.853c0.086-0.176,0.17-0.351,0.253-0.528
		c0.133-0.283,0.261-0.567,0.387-0.855c0.077-0.178,0.155-0.356,0.23-0.535c0.126-0.304,0.247-0.612,0.364-0.921
		c0.062-0.163,0.126-0.325,0.186-0.489c0.144-0.397,0.279-0.799,0.408-1.204c0.025-0.077,0.053-0.154,0.077-0.232
		c0.149-0.483,0.287-0.97,0.416-1.462c0.039-0.147,0.071-0.296,0.107-0.443c0.086-0.348,0.168-0.698,0.243-1.051
		c0.04-0.186,0.074-0.375,0.111-0.562c0.062-0.321,0.12-0.643,0.173-0.967c0.032-0.197,0.062-0.396,0.091-0.596
		c0.046-0.324,0.088-0.649,0.124-0.976c0.022-0.195,0.045-0.39,0.064-0.586c0.033-0.353,0.059-0.707,0.081-1.063
		c0.01-0.171,0.025-0.341,0.033-0.512c0.025-0.526,0.041-1.054,0.041-1.586c0-0.719-0.031-1.43-0.076-2.139
		c-0.01-0.168-0.025-0.336-0.039-0.506c-0.05-0.634-0.117-1.264-0.203-1.888c-0.01-0.076-0.018-0.153-0.029-0.229
		c-0.108-0.745-0.241-1.482-0.398-2.21c-0.009-0.042-0.02-0.085-0.029-0.126c-0.152-0.689-0.325-1.368-0.519-2.04
		c-0.014-0.049-0.023-0.099-0.038-0.147l82.81-47.811c0.101,0.106,0.208,0.204,0.31,0.308c0.176,0.179,0.353,0.354,0.533,0.529
		c0.19,0.185,0.38,0.368,0.575,0.548c0.242,0.225,0.489,0.444,0.738,0.661c0.139,0.121,0.277,0.243,0.418,0.363
		c0.33,0.28,0.668,0.552,1.009,0.818c0.066,0.051,0.13,0.103,0.195,0.154c3.591,2.763,7.763,4.804,12.298,5.91l0.003,8.784
		l15.673-0.006l-0.003-8.78c4.535-1.107,8.705-3.148,12.296-5.911c0.063-0.048,0.123-0.097,0.185-0.145
		c0.346-0.27,0.688-0.544,1.022-0.828c0.136-0.114,0.269-0.232,0.402-0.349c0.255-0.223,0.508-0.447,0.757-0.678
		c0.186-0.172,0.369-0.349,0.552-0.526c0.189-0.184,0.376-0.369,0.561-0.557c0.098-0.099,0.201-0.194,0.297-0.295l82.811,47.811
		c-0.016,0.054-0.026,0.11-0.042,0.164c-0.189,0.658-0.359,1.325-0.509,2c-0.011,0.054-0.026,0.108-0.038,0.161
		c-0.156,0.723-0.287,1.454-0.395,2.194c-0.013,0.083-0.02,0.166-0.031,0.249c-0.085,0.619-0.152,1.242-0.202,1.871
		c-0.014,0.17-0.028,0.34-0.039,0.511c-0.045,0.707-0.076,1.418-0.076,2.137c0,0.532,0.016,1.061,0.041,1.586
		c0.008,0.171,0.022,0.342,0.033,0.512c0.022,0.355,0.047,0.711,0.082,1.063c0.019,0.196,0.042,0.391,0.064,0.586
		c0.038,0.327,0.078,0.652,0.124,0.976c0.028,0.199,0.059,0.397,0.091,0.596c0.052,0.324,0.111,0.646,0.173,0.967
		c0.037,0.188,0.071,0.376,0.111,0.562c0.075,0.354,0.158,0.705,0.245,1.055c0.036,0.145,0.068,0.293,0.106,0.438
		c0.129,0.492,0.266,0.98,0.416,1.463c0.024,0.078,0.052,0.154,0.077,0.232c0.13,0.404,0.264,0.806,0.409,1.204
		c0.06,0.164,0.124,0.326,0.186,0.489c0.117,0.309,0.237,0.616,0.364,0.922c0.074,0.179,0.152,0.356,0.229,0.534
		c0.125,0.287,0.254,0.573,0.388,0.856c0.084,0.177,0.167,0.353,0.253,0.528c0.141,0.287,0.288,0.571,0.438,0.853
		c0.086,0.161,0.168,0.323,0.256,0.483c0.178,0.323,0.363,0.642,0.551,0.957c0.066,0.112,0.13,0.226,0.196,0.336
		c0.258,0.422,0.525,0.838,0.8,1.247c0.071,0.105,0.145,0.206,0.217,0.31c0.21,0.304,0.423,0.606,0.643,0.903
		c0.109,0.146,0.222,0.29,0.332,0.435c0.192,0.251,0.386,0.498,0.584,0.743c0.123,0.152,0.248,0.301,0.373,0.449
		c0.198,0.235,0.399,0.467,0.603,0.696c0.129,0.144,0.258,0.289,0.389,0.432c0.217,0.235,0.439,0.466,0.662,0.694
		c0.123,0.126,0.245,0.254,0.37,0.378c0.28,0.278,0.567,0.55,0.858,0.818c0.073,0.068,0.143,0.138,0.217,0.205
		c0.364,0.33,0.736,0.651,1.113,0.964c0.116,0.096,0.235,0.187,0.352,0.282c0.269,0.216,0.538,0.43,0.813,0.639
		c0.15,0.114,0.304,0.225,0.457,0.335c0.25,0.183,0.502,0.363,0.757,0.538c0.163,0.112,0.327,0.223,0.493,0.332
		c0.256,0.169,0.514,0.335,0.775,0.497c0.164,0.102,0.328,0.205,0.494,0.305c0.282,0.168,0.567,0.331,0.855,0.492
		c0.149,0.084,0.296,0.169,0.446,0.251c0.403,0.217,0.812,0.427,1.225,0.628c0.037,0.018,0.073,0.038,0.11,0.055
		c0.445,0.215,0.898,0.418,1.354,0.613c0.154,0.066,0.31,0.126,0.465,0.189c0.31,0.127,0.623,0.252,0.937,0.37
		c0.183,0.068,0.367,0.133,0.551,0.199c0.295,0.104,0.59,0.205,0.889,0.301c0.193,0.063,0.387,0.122,0.581,0.182
		c0.301,0.091,0.605,0.177,0.909,0.259c0.189,0.051,0.378,0.103,0.569,0.152c0.076,0.019,0.151,0.042,0.228,0.061v95.6
		c-0.076,0.019-0.152,0.042-0.228,0.061c-0.19,0.048-0.379,0.1-0.569,0.151c-0.305,0.083-0.608,0.168-0.909,0.259
		c-0.194,0.059-0.388,0.119-0.581,0.182c-0.299,0.096-0.595,0.197-0.889,0.301c-0.184,0.066-0.369,0.13-0.552,0.199
		c-0.313,0.117-0.624,0.242-0.933,0.369c-0.157,0.064-0.315,0.125-0.47,0.191c-0.456,0.195-0.907,0.398-1.352,0.612
		c-0.038,0.018-0.073,0.038-0.11,0.055c-0.414,0.202-0.821,0.411-1.225,0.628c-0.15,0.082-0.297,0.167-0.446,0.251
		c-0.287,0.161-0.573,0.323-0.855,0.492c-0.166,0.099-0.33,0.203-0.494,0.305c-0.261,0.163-0.519,0.328-0.775,0.497
		c-0.165,0.11-0.329,0.22-0.493,0.332c-0.255,0.176-0.507,0.356-0.757,0.538c-0.153,0.112-0.306,0.221-0.457,0.335
		c-0.275,0.208-0.544,0.423-0.813,0.639c-0.117,0.094-0.236,0.186-0.352,0.282c-0.378,0.313-0.749,0.635-1.113,0.964
		c-0.074,0.067-0.144,0.138-0.217,0.205c-0.29,0.269-0.577,0.539-0.858,0.818c-0.125,0.124-0.247,0.252-0.37,0.378
		c-0.083,0.085-0.166,0.168-0.249,0.254l-7.618-4.398l-7.837,13.573l7.604,4.39c-0.092,0.313-0.184,0.627-0.266,0.945
		c-0.038,0.145-0.07,0.293-0.106,0.438c-0.086,0.35-0.169,0.701-0.245,1.055c-0.04,0.186-0.074,0.375-0.111,0.562
		c-0.062,0.321-0.12,0.643-0.173,0.967c-0.032,0.197-0.062,0.396-0.091,0.596c-0.046,0.324-0.088,0.649-0.124,0.976
		c-0.022,0.195-0.045,0.39-0.064,0.586c-0.033,0.353-0.059,0.707-0.082,1.063c-0.01,0.171-0.025,0.341-0.033,0.512
		c-0.025,0.526-0.041,1.054-0.041,1.586c0,0.72,0.031,1.432,0.076,2.14c0.01,0.167,0.025,0.334,0.039,0.502
		c0.051,0.638,0.118,1.273,0.205,1.901c0.01,0.071,0.017,0.143,0.027,0.215c0.109,0.749,0.242,1.489,0.4,2.221
		c0.007,0.034,0.017,0.069,0.024,0.103c0.154,0.7,0.33,1.391,0.528,2.073C362.702,345.15,362.71,345.194,362.723,345.236z
		 M394.478,353.366c-6.545,0-12.254-3.634-15.228-8.987c-0.059-0.104-0.114-0.211-0.169-0.317c-0.203-0.383-0.392-0.774-0.566-1.173
		c-0.032-0.074-0.069-0.146-0.1-0.222c-0.186-0.444-0.35-0.901-0.499-1.363c-0.046-0.143-0.089-0.288-0.132-0.434
		c-0.115-0.391-0.217-0.786-0.306-1.187c-0.022-0.099-0.049-0.197-0.07-0.298c-0.097-0.482-0.168-0.972-0.225-1.466
		c-0.016-0.135-0.028-0.271-0.041-0.406c-0.046-0.516-0.079-1.035-0.079-1.563c0-9.603,7.813-17.415,17.414-17.415
		c9.603,0,17.415,7.813,17.415,17.415C411.894,345.553,404.082,353.366,394.478,353.366z"/>
	
		<rect x="236.5" y="168.21" transform="matrix(-3.400000e-004 -1 1 -3.400000e-004 80.0542 432.1205)" style="fill:#010101;" width="39.027" height="15.673"/>
	
		<rect x="178.928" y="276.454" transform="matrix(0.5 0.866 -0.866 0.5 349.7024 -13.7557)" style="fill:#010101;" width="15.673" height="39.047"/>
	
		<rect x="305.755" y="288.15" transform="matrix(0.866 0.5 -0.5 0.866 191.5754 -122.9784)" style="fill:#010101;" width="39.016" height="15.673"/>
	<path style="fill:#010101;" d="M59.332,379.643l-7.89-13.543l-6.973,4.062c-0.052-0.096-0.108-0.191-0.16-0.287l-13.796,7.439
		c8.291,15.381,18.213,29.976,29.488,43.382l11.994-10.09c-7.149-8.498-13.702-17.516-19.611-26.916L59.332,379.643z"/>
	<path style="fill:#010101;" d="M447.288,153.63l20.245-11.794c0.01,0.02,0.022,0.038,0.032,0.057l13.787-7.453
		c-8.31-15.373-18.247-29.957-29.536-43.349l-11.984,10.102c7.214,8.558,13.823,17.643,19.779,27.118l-20.214,11.776L447.288,153.63
		z"/>
	<path style="fill:#010101;" d="M107.026,67.403l-9.724-12.292C83.583,65.963,70.929,78.265,59.691,91.676l12.013,10.068
		C82.259,89.148,94.142,77.595,107.026,67.403z"/>
	<path style="fill:#010101;" d="M43.587,143.522l6.99,3.999l7.782-13.605l-6.993-4.001c0.041-0.065,0.078-0.132,0.119-0.197
		l-13.328-8.249c-9.222,14.902-16.921,30.79-22.882,47.223l14.734,5.345C33.801,163.586,38.359,153.376,43.587,143.522z"/>
	<path style="fill:#010101;" d="M248.163,15.813v23.37h15.673V7.837h-0.581l0.223-7.729C261.005,0.036,258.489,0,256,0
		c-0.006,0-0.011,0-0.018,0c-15.04,0-30.118,1.317-44.815,3.913l2.727,15.434C225.148,17.359,236.642,16.184,248.163,15.813z"/>
	<path style="fill:#010101;" d="M15.673,256c0-16.413,1.663-32.811,4.943-48.74l-15.351-3.162C1.772,221.064,0,238.527,0,256.045
		v0.227h15.673V256z"/>
	<path style="fill:#010101;" d="M509.315,218.794c-2.524-17.334-6.855-34.447-12.869-50.866l-14.716,5.392
		c5.643,15.406,9.707,31.465,12.076,47.733L509.315,218.794z"/>
	<path style="fill:#010101;" d="M426.187,64.758c-13.082-11.65-27.393-21.982-42.537-30.71l-7.826,13.579
		c14.218,8.194,27.656,17.895,39.939,28.834L426.187,64.758z"/>
	<path style="fill:#010101;" d="M350.543,18.028c-16.255-6.465-33.247-11.259-50.504-14.252l-2.678,15.443
		c16.193,2.809,32.138,7.307,47.39,13.373L350.543,18.028z"/>
	<path style="fill:#010101;" d="M180.448,27.786l-4.924-14.879c-16.597,5.492-32.696,12.735-47.85,21.531l7.868,13.555
		C149.765,39.739,164.873,32.939,180.448,27.786z"/>
	<path style="fill:#010101;" d="M2.645,292.93c2.506,17.338,6.817,34.457,12.814,50.878l14.723-5.376
		c-5.627-15.41-9.672-31.474-12.024-47.746L2.645,292.93z"/>
	<path style="fill:#010101;" d="M404.767,444.76l9.71,12.302c13.73-10.837,26.397-23.126,37.65-36.524l-12.002-10.079
		C429.558,423.042,417.661,434.582,404.767,444.76z"/>
	<path style="fill:#010101;" d="M331.302,484.294l4.906,14.886c16.603-5.472,32.711-12.699,47.874-21.479l-7.853-13.563
		C361.998,472.377,346.882,479.159,331.302,484.294z"/>
	<path style="fill:#010101;" d="M511.999,255.455h-15.673l0.001,0.545c0,16.5-1.68,32.984-4.997,48.998l15.349,3.178
		c3.531-17.056,5.322-34.61,5.322-52.22L511.999,255.455z"/>
	<path style="fill:#010101;" d="M468.413,368.478l-20.322-11.625l-7.781,13.605l20.321,11.625c-0.087,0.14-0.168,0.284-0.255,0.424
		l13.318,8.261c9.24-14.895,16.957-30.773,22.933-47.197l-14.729-5.361C478.128,348.574,473.601,358.7,468.413,368.478z"/>
	<path style="fill:#010101;" d="M85.605,447.059c13.069,11.663,27.368,22.011,42.502,30.756l7.841-13.571
		c-14.209-8.209-27.635-17.925-39.907-28.878L85.605,447.059z"/>
	<path style="fill:#010101;" d="M263.837,496.185v-8.012h-15.673v15.99h0.309l-0.227,7.723c2.587,0.075,5.195,0.114,7.754,0.114
		c14.952,0,29.942-1.3,44.555-3.865l-2.71-15.436C286.676,494.658,275.269,495.817,263.837,496.185z"/>
	<path style="fill:#010101;" d="M161.194,493.868c16.251,6.484,33.238,11.298,50.489,14.309l2.695-15.44
		c-16.189-2.825-32.129-7.342-47.376-13.426L161.194,493.868z"/>
</g>
</svg>